<?xml version="1.0" encoding="utf-8"?>
<!-- Generator: Adobe Illustrator 15.1.0, SVG Export Plug-In . SVG Version: 6.00 Build 0)  -->
<!DOCTYPE svg PUBLIC "-//W3C//DTD SVG 1.1//EN" "http://www.w3.org/Graphics/SVG/1.1/DTD/svg11.dtd">
<svg version="1.1" id="Layer_1" xmlns="http://www.w3.org/2000/svg" xmlns:xlink="http://www.w3.org/1999/xlink" x="0px" y="0px"
	 width="24px" height="24px" viewBox="-395.5 304.5 24 24" enable-background="new -395.5 304.5 24 24" xml:space="preserve">
<path d="M-374.5,313.5h-6v-6c0-0.553-0.448-1-1-1h-4c-0.552,0-1,0.447-1,1v6h-6c-0.553,0-1,0.447-1,1v4c0,0.552,0.447,1,1,1h6v6
	c0,0.553,0.448,1,1,1h4c0.552,0,1-0.447,1-1v-6h6c0.553,0,1-0.447,1-1v-4C-373.5,313.948-373.947,313.5-374.5,313.5z"/>
</svg>
