<?xml version="1.0" encoding="utf-8"?>
<!-- Generator: Adobe Illustrator 15.1.0, SVG Export Plug-In . SVG Version: 6.00 Build 0)  -->
<!DOCTYPE svg PUBLIC "-//W3C//DTD SVG 1.1//EN" "http://www.w3.org/Graphics/SVG/1.1/DTD/svg11.dtd">
<svg version="1.1" id="Layer_1" xmlns="http://www.w3.org/2000/svg" xmlns:xlink="http://www.w3.org/1999/xlink" x="0px" y="0px"
	 width="24px" height="24px" viewBox="0.5 24.5 24 24" enable-background="new 0.5 24.5 24 24" xml:space="preserve">
<g>
	<circle cx="18.5" cy="34.5" r="2"/>
	<circle cx="4.5" cy="34.5" r="2"/>
	<rect x="10.5" y="24.5" width="2" height="24"/>
	<path d="M6.5,37.5h-4c-1.104,0-2,0.896-2,2v5h8v-5C8.5,38.396,7.604,37.5,6.5,37.5z"/>
	<rect x="14.5" y="41.5" width="8" height="1"/>
	<rect x="14.5" y="39.5" width="8" height="1"/>
	<path d="M20.5,37.5h-4c-0.738,0-1.376,0.404-1.723,1h7.445C21.876,37.904,21.238,37.5,20.5,37.5z"/>
	<rect x="14.5" y="43.5" width="8" height="1"/>
</g>
</svg>
