<?xml version="1.0" encoding="utf-8"?>
<!-- Generator: Adobe Illustrator 15.1.0, SVG Export Plug-In . SVG Version: 6.00 Build 0)  -->
<!DOCTYPE svg PUBLIC "-//W3C//DTD SVG 1.1//EN" "http://www.w3.org/Graphics/SVG/1.1/DTD/svg11.dtd">
<svg version="1.1" id="Layer_1" xmlns="http://www.w3.org/2000/svg" xmlns:xlink="http://www.w3.org/1999/xlink" x="0px" y="0px"
	 width="16px" height="16px" viewBox="0 0 16 16" enable-background="new 0 0 16 16" xml:space="preserve">
<polygon points="9.495,3.813 9.495,5.269 12.408,5.269 12.408,6.727 9.495,6.727 9.495,8.183 6.581,5.997 9.495,3.812 "/>
<path d="M9.994,11.992H5.996V2.998L2,1h7.995v3.688h1V1c0-0.55-0.45-0.999-1-0.999H0.999C0.448,0.002,0.001,0.449,0,1v11.372
	c0,0.39,0.22,0.729,0.55,0.91L5.996,16v-3.008h3.998c0.55,0,1-0.45,1-1l0.001-4.68h-1l-0.001,4.682V11.992z"/>
</svg>
